<svg version="1.1" viewBox="0 0 512 512" xmlns="http://www.w3.org/2000/svg" xmlns:xlink="http://www.w3.org/1999/xlink" id="Layer_1" overflow="hidden"><path d=" M 445.217 489.739 L 66.783 489.739 C 42.195 489.739 22.261 469.805 22.261 445.217 L 22.261 66.783 C 22.261 42.195 42.194 22.261 66.783 22.261 L 445.218 22.261 C 469.806 22.261 489.74 42.194 489.74 66.783 L 489.74 445.218 C 489.739 469.806 469.806 489.739 445.217 489.739 Z" fill="#A9B9BB"/><path d=" M 308.87 189.217 C 308.87 193.827 305.132 197.565 300.522 197.565 C 289.782 197.565 281.044 206.304 281.044 217.043 C 281.044 221.653 277.306 225.391 272.696 225.391 C 268.086 225.391 264.348 221.653 264.348 217.043 C 264.348 206.303 255.61 197.565 244.87 197.565 C 240.26 197.565 236.522 193.827 236.522 189.217 C 236.522 184.607 240.26 180.869 244.87 180.869 C 256.046 180.869 266.056 185.965 272.696 193.953 C 279.336 185.965 289.346 180.869 300.522 180.869 C 305.132 180.87 308.87 184.607 308.87 189.217 Z" fill="#727C7C"/><path d=" M 189.217 94.609 C 189.217 146.86 146.859 189.218 94.608 189.218 C 42.357 189.218 0 146.859 0 94.609 C 0 42.359 42.358 0 94.609 0 C 146.86 0 189.217 42.358 189.217 94.609 Z" fill="#FFED8F"/><path d=" M 144.619 97.339 C 143.201 123.73 121.355 144.696 94.609 144.696 C 66.947 144.696 44.522 122.272 44.522 94.609 C 44.522 72.774 58.498 54.213 77.99 47.357 C 77.941 48.262 77.913 49.171 77.913 50.087 C 77.913 77.749 100.337 100.174 128 100.174 C 133.827 100.174 139.418 99.168 144.619 97.339 Z" fill="#FFCD69"/><path d=" M 289.391 44.522 L 289.391 44.522 C 289.391 56.817 279.425 66.783 267.13 66.783 L 189.217 66.783 C 176.922 66.783 166.956 56.817 166.956 44.522 L 122.434 44.522 C 110.139 44.522 100.173 34.556 100.173 22.261 L 100.173 22.261 C 100.174 9.966 110.14 0 122.435 0 L 200.348 0 C 212.643 0 222.609 9.966 222.609 22.261 L 222.609 22.261 L 267.131 22.261 C 279.425 22.261 289.391 32.227 289.391 44.522 Z M 178.087 256 L 77.913 256 C 65.618 256 55.652 265.966 55.652 278.261 L 55.652 278.261 C 55.652 290.556 65.618 300.522 77.913 300.522 L 178.087 300.522 C 190.382 300.522 200.348 290.556 200.348 278.261 L 200.348 278.261 C 200.348 265.966 190.382 256 178.087 256 Z" fill="#C7D7D8"/><path d=" M 512 411.826 L 512 489.739 C 512 502.034 502.034 512 489.739 512 L 22.261 512 C 9.966 512 0 502.034 0 489.739 L 0 411.826 C 0 399.531 9.966 389.565 22.261 389.565 L 489.739 389.565 C 502.034 389.565 512 399.531 512 411.826 Z" fill="#727C7C"/><path d=" M 125.217 434.087 L 25.043 434.087 C 20.433 434.087 16.695 430.349 16.695 425.739 C 16.695 421.129 20.433 417.391 25.043 417.391 L 125.217 417.391 C 129.827 417.391 133.565 421.129 133.565 425.739 C 133.565 430.349 129.828 434.087 125.217 434.087 Z M 147.478 461.913 L 58.435 461.913 C 53.825 461.913 50.087 465.651 50.087 470.261 C 50.087 474.871 53.825 478.609 58.435 478.609 L 147.478 478.609 C 152.088 478.609 155.826 474.871 155.826 470.261 C 155.826 465.651 152.088 461.913 147.478 461.913 Z M 192 417.391 L 169.739 417.391 C 165.129 417.391 161.391 421.129 161.391 425.739 C 161.391 430.349 165.129 434.087 169.739 434.087 L 192 434.087 C 196.61 434.087 200.348 430.349 200.348 425.739 C 200.348 421.129 196.61 417.391 192 417.391 Z" fill="#FFED8F"/><path d=" M 478.609 345.043 L 478.609 367.304 L 367.304 367.304 L 367.304 345.043 L 378.434 144.695 L 378.434 122.434 L 467.477 122.434 L 467.477 144.695 L 478.609 345.043 Z" fill="#D3D5BB"/><path d=" M 434.087 345.043 L 434.087 367.304 L 367.304 367.304 L 367.304 345.043 L 378.434 144.695 L 378.434 122.434 L 422.956 122.434 L 422.956 144.695 L 434.087 345.043 Z" fill="#F2F2E7"/><path d=" M 472.734 239.304 L 373.179 239.304 L 375.962 189.217 L 469.952 189.217 L 472.734 239.304 Z M 475.517 289.391 L 370.397 289.391 L 367.305 345.043 L 367.305 354.318 L 478.609 354.318 L 478.609 345.043 L 475.517 289.391 Z" fill="#FFA47B"/><path d=" M 428.212 239.304 L 373.179 239.304 L 375.962 189.217 L 425.43 189.217 L 428.212 239.304 Z M 430.995 289.391 L 370.396 289.391 L 367.304 345.043 L 367.304 354.318 L 434.087 354.318 L 434.087 345.043 L 430.995 289.391 Z" fill="#FFC8A9"/><path d=" M 467.478 55.652 L 467.478 55.652 L 467.478 144.695 L 378.435 144.695 L 378.435 55.652 L 378.435 55.652 C 385.562 48.525 395.228 44.522 405.306 44.522 L 440.607 44.522 C 450.686 44.522 460.351 48.525 467.478 55.652 Z" fill="#FFCD69"/><path d=" M 422.957 144.696 L 378.435 144.696 L 378.435 55.652 L 422.957 55.652 L 422.957 144.696 Z" fill="#FFED8F"/><path d=" M 500.87 356.174 L 500.87 400.696 L 345.043 400.696 L 345.043 356.174 C 345.043 350.027 350.026 345.044 356.173 345.044 L 489.738 345.044 C 495.886 345.043 500.87 350.027 500.87 356.174 Z" fill="#D3D5BB"/><path d=" M 467.478 55.652 L 378.435 55.652 L 406.1 9.544 C 409.652 3.623 416.051 0 422.957 0 C 429.863 0 436.261 3.623 439.814 9.544 L 467.478 55.652 Z M 484.174 100.174 L 361.739 100.174 C 358.666 100.174 356.174 102.666 356.174 105.739 L 356.174 133.565 C 356.174 139.712 361.157 144.695 367.304 144.695 L 478.608 144.695 C 484.755 144.695 489.738 139.712 489.738 133.565 L 489.738 105.739 C 489.739 102.666 487.247 100.174 484.174 100.174 Z" fill="#FF7039"/><path d=" M 512 411.826 L 512 445.217 L 512 489.739 C 512 502.034 502.034 512 489.739 512 L 322.783 512 L 211.478 512 C 199.183 512 189.217 502.034 189.217 489.739 L 189.217 478.609 C 189.217 460.167 204.166 445.218 222.608 445.218 L 311.651 445.218 C 317.798 445.218 322.781 440.235 322.781 434.088 L 322.781 411.827 C 322.781 399.532 332.747 389.566 345.042 389.566 L 489.738 389.566 C 502.034 389.565 512 399.531 512 411.826 Z" fill="#BCAE8A"/><g></g><g></g><g></g><g></g><g></g><g></g><g></g><g></g><g></g><g></g><g></g><g></g><g></g><g></g><g></g></svg>